<svg xmlns="http://www.w3.org/2000/svg" width="1400" height="800" viewBox="0 0 1400 800" font-family="'Segoe UI', Arial, sans-serif">
  <defs>
    <linearGradient id="bgGrad" x1="0" y1="0" x2="1" y2="1">
      <stop offset="0%" stop-color="#0f172a"/>
      <stop offset="100%" stop-color="#1e293b"/>
    </linearGradient>
    <linearGradient id="cardGrad" x1="0" y1="0" x2="0" y2="1">
      <stop offset="0%" stop-color="#1e293b"/>
      <stop offset="100%" stop-color="#0f172a"/>
    </linearGradient>
    <linearGradient id="heroGrad" x1="0" y1="0" x2="1" y2="1">
      <stop offset="0%" stop-color="#3b82f6"/>
      <stop offset="100%" stop-color="#6366f1"/>
    </linearGradient>
    <linearGradient id="accentGrad" x1="0" y1="0" x2="1" y2="0">
      <stop offset="0%" stop-color="#3b82f6"/>
      <stop offset="100%" stop-color="#8b5cf6"/>
    </linearGradient>
    <linearGradient id="greenGrad" x1="0" y1="0" x2="1" y2="1">
      <stop offset="0%" stop-color="#10b981"/>
      <stop offset="100%" stop-color="#059669"/>
    </linearGradient>
    <filter id="glow">
      <feGaussianBlur stdDeviation="8" result="blur"/>
      <feMerge><feMergeNode in="blur"/><feMergeNode in="SourceGraphic"/></feMerge>
    </filter>
    <filter id="cardShadow">
      <feDropShadow dx="0" dy="8" stdDeviation="20" flood-color="#000000" flood-opacity="0.5"/>
    </filter>
    <filter id="softShadow">
      <feDropShadow dx="0" dy="4" stdDeviation="10" flood-color="#000000" flood-opacity="0.3"/>
    </filter>
    <clipPath id="screenClip1"><rect x="0" y="0" width="240" height="480" rx="8"/></clipPath>
    <clipPath id="screenClip2"><rect x="0" y="0" width="240" height="480" rx="8"/></clipPath>
  </defs>

  <!-- Background -->
  <rect width="1400" height="800" fill="url(#bgGrad)"/>

  <!-- Decorative grid dots -->
  <g opacity="0.06" fill="#94a3b8">
    <circle cx="80" cy="80" r="2"/><circle cx="160" cy="80" r="2"/><circle cx="240" cy="80" r="2"/>
    <circle cx="80" cy="160" r="2"/><circle cx="160" cy="160" r="2"/><circle cx="240" cy="160" r="2"/>
    <circle cx="80" cy="240" r="2"/><circle cx="160" cy="240" r="2"/><circle cx="240" cy="240" r="2"/>
    <circle cx="1160" cy="80" r="2"/><circle cx="1240" cy="80" r="2"/><circle cx="1320" cy="80" r="2"/>
    <circle cx="1160" cy="160" r="2"/><circle cx="1240" cy="160" r="2"/><circle cx="1320" cy="160" r="2"/>
    <circle cx="1160" cy="640" r="2"/><circle cx="1240" cy="640" r="2"/><circle cx="1320" cy="640" r="2"/>
    <circle cx="1160" cy="720" r="2"/><circle cx="1240" cy="720" r="2"/><circle cx="1320" cy="720" r="2"/>
  </g>

  <!-- Glow blobs -->
  <circle cx="200" cy="400" r="220" fill="#3b82f6" opacity="0.06"/>
  <circle cx="1200" cy="400" r="220" fill="#8b5cf6" opacity="0.06"/>
  <circle cx="700" cy="760" r="180" fill="#3b82f6" opacity="0.05"/>

  <!-- ======================== HEADER ======================== -->
  <!-- Logo / Brand -->
  <g transform="translate(60, 48)">
    <rect width="44" height="44" rx="10" fill="url(#heroGrad)"/>
    <text x="22" y="30" text-anchor="middle" font-size="20" font-weight="800" fill="#fff">CV</text>
    <text x="56" y="24" font-size="22" font-weight="800" fill="#f8fafc">My<tspan fill="#3b82f6">CV</tspan> Builder</text>
    <text x="56" y="44" font-size="13" fill="#64748b">Full-Stack Portfolio Platform</text>
  </g>

  <!-- Tech badges top right -->
  <g transform="translate(900, 52)">
    <g><rect width="60" height="26" rx="13" fill="#1e293b" stroke="#3b82f6" stroke-width="1"/><text x="30" y="17" text-anchor="middle" font-size="11" font-weight="600" fill="#3b82f6">React</text></g>
    <g transform="translate(68,0)"><rect width="48" height="26" rx="13" fill="#1e293b" stroke="#3b82f6" stroke-width="1"/><text x="24" y="17" text-anchor="middle" font-size="11" font-weight="600" fill="#3b82f6">Go</text></g>
    <g transform="translate(124,0)"><rect width="58" height="26" rx="13" fill="#1e293b" stroke="#8b5cf6" stroke-width="1"/><text x="29" y="17" text-anchor="middle" font-size="11" font-weight="600" fill="#8b5cf6">Nuxt</text></g>
    <g transform="translate(190,0)"><rect width="82" height="26" rx="13" fill="#1e293b" stroke="#10b981" stroke-width="1"/><text x="41" y="17" text-anchor="middle" font-size="11" font-weight="600" fill="#10b981">PostgreSQL</text></g>
    <g transform="translate(280,0)"><rect width="68" height="26" rx="13" fill="#1e293b" stroke="#f59e0b" stroke-width="1"/><text x="34" y="17" text-anchor="middle" font-size="11" font-weight="600" fill="#f59e0b">Docker</text></g>
    <g transform="translate(356,0)"><rect width="80" height="26" rx="13" fill="#1e293b" stroke="#06b6d4" stroke-width="1"/><text x="40" y="17" text-anchor="middle" font-size="11" font-weight="600" fill="#06b6d4">Tailwind</text></g>
  </g>

  <!-- ======================== HERO TEXT (LEFT) ======================== -->
  <g transform="translate(60, 136)">
    <rect width="4" height="48" rx="2" fill="url(#heroGrad)"/>
    <text x="20" y="34" font-size="40" font-weight="800" fill="#f8fafc">Platform CV &amp;</text>
    <text x="20" y="80" font-size="40" font-weight="800" fill="url(#accentGrad)">Portofolio Dinamis</text>
    <text x="20" y="116" font-size="16" fill="#94a3b8">Multi-tenant · 10 Template · Bilingual · Dark Mode</text>

    <!-- Feature list -->
    <g transform="translate(0, 148)" fill="#cbd5e1" font-size="15">
      <g><circle cx="8" cy="5" r="4" fill="#3b82f6"/><text x="22" y="10">Kelola konten CV via Admin Panel (Nuxt)</text></g>
      <g transform="translate(0,30)"><circle cx="8" cy="5" r="4" fill="#8b5cf6"/><text x="22" y="10">10 versi desain portofolio (v1–v10)</text></g>
      <g transform="translate(0,60)"><circle cx="8" cy="5" r="4" fill="#10b981"/><text x="22" y="10">REST API Clean Architecture (Go + Fiber)</text></g>
      <g transform="translate(0,90)"><circle cx="8" cy="5" r="4" fill="#f59e0b"/><text x="22" y="10">Upload media ke Cloudflare R2</text></g>
      <g transform="translate(0,120)"><circle cx="8" cy="5" r="4" fill="#06b6d4"/><text x="22" y="10">Multi-tenant: akses via /p/username</text></g>
      <g transform="translate(0,150)"><circle cx="8" cy="5" r="4" fill="#ec4899"/><text x="22" y="10">Docker Compose + Cloudflare Tunnel</text></g>
    </g>

    <!-- Stats row -->
    <g transform="translate(0, 360)">
      <g>
        <text x="0" y="0" font-size="36" font-weight="800" fill="#3b82f6">10</text>
        <text x="0" y="20" font-size="12" fill="#64748b">Templates</text>
      </g>
      <g transform="translate(100,0)">
        <text x="0" y="0" font-size="36" font-weight="800" fill="#8b5cf6">3</text>
        <text x="0" y="20" font-size="12" fill="#64748b">Services</text>
      </g>
      <g transform="translate(180,0)">
        <text x="0" y="0" font-size="36" font-weight="800" fill="#10b981">2</text>
        <text x="0" y="20" font-size="12" fill="#64748b">Languages</text>
      </g>
      <g transform="translate(260,0)">
        <text x="0" y="0" font-size="36" font-weight="800" fill="#f59e0b">∞</text>
        <text x="0" y="20" font-size="12" fill="#64748b">Users</text>
      </g>
    </g>
  </g>

  <!-- ======================== MOCKUP SCREENS ======================== -->

  <!-- Screen 1: Portfolio (dark mode hero) -->
  <g transform="translate(520, 100)" filter="url(#cardShadow)">
    <!-- Phone frame -->
    <rect width="256" height="500" rx="28" fill="#334155"/>
    <rect x="6" y="6" width="244" height="488" rx="24" fill="#0f172a"/>
    <!-- notch -->
    <rect x="88" y="10" width="80" height="14" rx="7" fill="#1e293b"/>
    <!-- Status bar -->
    <rect x="16" y="30" width="224" height="430" rx="8" fill="#0f172a"/>

    <!-- Hero section inside phone -->
    <rect x="16" y="30" width="224" height="160" rx="8" fill="url(#heroGrad)" opacity="0.15"/>
    <circle cx="128" cy="92" r="32" fill="url(#heroGrad)" opacity="0.8"/>
    <text x="128" y="97" text-anchor="middle" font-size="16" font-weight="700" fill="#fff">W</text>
    <text x="128" y="140" text-anchor="middle" font-size="12" font-weight="700" fill="#f8fafc">Waluyo Ade P.</text>
    <text x="128" y="156" text-anchor="middle" font-size="9" fill="#94a3b8">Squad Lead · BRI</text>
    <rect x="88" y="168" width="80" height="18" rx="9" fill="url(#heroGrad)"/>
    <text x="128" y="181" text-anchor="middle" font-size="9" font-weight="600" fill="#fff">Lihat Portofolio</text>

    <!-- About mini section -->
    <rect x="24" y="202" width="208" height="52" rx="6" fill="#1e293b"/>
    <text x="36" y="218" font-size="8" font-weight="700" fill="#3b82f6">TENTANG SAYA</text>
    <rect x="36" y="224" width="170" height="6" rx="3" fill="#334155"/>
    <rect x="36" y="234" width="140" height="6" rx="3" fill="#334155"/>
    <rect x="36" y="244" width="155" height="6" rx="3" fill="#334155"/>

    <!-- Skills mini -->
    <text x="36" y="274" font-size="8" font-weight="700" fill="#3b82f6">SKILLS</text>
    <g transform="translate(36, 280)">
      <rect width="42" height="14" rx="7" fill="#1e40af"/><text x="21" y="10" text-anchor="middle" font-size="7" fill="#93c5fd">Go</text>
      <g transform="translate(48,0)"><rect width="50" height="14" rx="7" fill="#312e81"/><text x="25" y="10" text-anchor="middle" font-size="7" fill="#a5b4fc">Vue.js</text></g>
      <g transform="translate(104,0)"><rect width="52" height="14" rx="7" fill="#065f46"/><text x="26" y="10" text-anchor="middle" font-size="7" fill="#6ee7b7">Docker</text></g>
      <g transform="translate(0,20)"><rect width="56" height="14" rx="7" fill="#1e40af"/><text x="28" y="10" text-anchor="middle" font-size="7" fill="#93c5fd">React</text></g>
      <g transform="translate(62,20)"><rect width="60" height="14" rx="7" fill="#4c0519"/><text x="30" y="10" text-anchor="middle" font-size="7" fill="#fda4af">PostgreSQL</text></g>
    </g>

    <!-- Bottom nav bar -->
    <rect x="16" y="424" width="224" height="36" rx="0" fill="#1e293b"/>
    <g fill="#64748b">
      <rect x="44" y="436" width="16" height="12" rx="2"/>
      <rect x="104" y="436" width="16" height="12" rx="2"/>
      <rect x="164" y="436" width="16" height="12" rx="2"/>
      <rect x="224" y="436" width="16" height="12" rx="2"/>
    </g>
    <rect x="96" y="436" width="16" height="12" rx="2" fill="#3b82f6"/>

    <!-- Label -->
    <text x="128" y="520" text-anchor="middle" font-size="12" font-weight="600" fill="#3b82f6">Portfolio View</text>
    <text x="128" y="536" text-anchor="middle" font-size="10" fill="#64748b">Dark Mode · Animated</text>
  </g>

  <!-- Screen 2: Admin Panel -->
  <g transform="translate(800, 80)" filter="url(#cardShadow)">
    <!-- Laptop frame -->
    <rect width="440" height="310" rx="14" fill="#334155"/>
    <rect x="8" y="8" width="424" height="270" rx="10" fill="#0f172a"/>
    <!-- Laptop base -->
    <rect x="-30" y="310" width="500" height="18" rx="4" fill="#334155"/>
    <rect x="160" y="308" width="120" height="12" rx="3" fill="#1e293b"/>

    <!-- Sidebar -->
    <rect x="8" y="8" width="80" height="270" rx="10 0 0 10" fill="#0f172a"/>
    <rect x="8" y="8" width="80" height="270" rx="10" fill="#1e293b" clip-path="inset(0 0 0 0)"/>
    <text x="48" y="40" text-anchor="middle" font-size="10" font-weight="700" fill="#3b82f6">CV</text>
    <g fill="#475569" font-size="9">
      <rect x="16" y="54" width="48" height="22" rx="4" fill="#3b82f6"/>
      <text x="40" y="69" text-anchor="middle" font-size="8" fill="#fff">Dashboard</text>
      <text x="40" y="96" text-anchor="middle">Profil</text>
      <text x="40" y="118" text-anchor="middle">Experience</text>
      <text x="40" y="140" text-anchor="middle">Skills</text>
      <text x="40" y="162" text-anchor="middle">Projects</text>
      <text x="40" y="184" text-anchor="middle">Education</text>
      <text x="40" y="206" text-anchor="middle">Settings</text>
    </g>

    <!-- Main content area -->
    <rect x="88" y="8" width="344" height="270" rx="0 10 10 0" fill="#0f172a"/>

    <!-- Top bar -->
    <rect x="88" y="8" width="344" height="32" fill="#1e293b"/>
    <text x="104" y="28" font-size="11" font-weight="600" fill="#f8fafc">Dashboard</text>
    <circle cx="404" cy="24" r="10" fill="#3b82f6"/>
    <text x="404" y="28" text-anchor="middle" font-size="8" fill="#fff">W</text>

    <!-- Stats cards -->
    <g transform="translate(96, 50)">
      <rect width="92" height="52" rx="8" fill="#1e293b" stroke="#3b82f6" stroke-width="1"/>
      <text x="10" y="18" font-size="8" fill="#64748b">Templates</text>
      <text x="10" y="38" font-size="22" font-weight="800" fill="#3b82f6">10</text>

      <g transform="translate(100,0)">
        <rect width="92" height="52" rx="8" fill="#1e293b" stroke="#8b5cf6" stroke-width="1"/>
        <text x="10" y="18" font-size="8" fill="#64748b">Projects</text>
        <text x="10" y="38" font-size="22" font-weight="800" fill="#8b5cf6">8</text>
      </g>

      <g transform="translate(200,0)">
        <rect width="92" height="52" rx="8" fill="#1e293b" stroke="#10b981" stroke-width="1"/>
        <text x="10" y="18" font-size="8" fill="#64748b">Skills</text>
        <text x="10" y="38" font-size="22" font-weight="800" fill="#10b981">15</text>
      </g>
    </g>

    <!-- Profile form section -->
    <rect x="96" y="116" width="280" height="148" rx="8" fill="#1e293b"/>
    <text x="112" y="134" font-size="9" font-weight="700" fill="#3b82f6">EDIT PROFIL</text>

    <!-- Avatar upload -->
    <circle cx="148" cy="175" r="26" fill="#334155"/>
    <text x="148" y="179" text-anchor="middle" font-size="12" fill="#64748b">📷</text>

    <!-- Form fields -->
    <g transform="translate(182, 148)">
      <text x="0" y="10" font-size="7" fill="#64748b">Nama Lengkap</text>
      <rect y="14" width="172" height="16" rx="4" fill="#0f172a" stroke="#334155" stroke-width="1"/>
      <text x="6" y="25" font-size="7" fill="#94a3b8">Waluyo Ade Prasetio</text>

      <text x="0" y="42" font-size="7" fill="#64748b">Jabatan</text>
      <rect y="46" width="172" height="16" rx="4" fill="#0f172a" stroke="#334155" stroke-width="1"/>
      <text x="6" y="57" font-size="7" fill="#94a3b8">Squad Lead · BRI</text>

      <text x="0" y="74" font-size="7" fill="#64748b">Lokasi</text>
      <rect y="78" width="172" height="16" rx="4" fill="#0f172a" stroke="#334155" stroke-width="1"/>
      <text x="6" y="89" font-size="7" fill="#94a3b8">Jakarta, Indonesia</text>

      <rect y="106" width="80" height="20" rx="4" fill="url(#heroGrad)"/>
      <text x="40" y="114" text-anchor="middle" font-size="8" font-weight="600" fill="#fff">Simpan</text>
    </g>

    <!-- Label -->
    <text x="220" y="352" text-anchor="middle" font-size="12" font-weight="600" fill="#8b5cf6">Admin Panel</text>
    <text x="220" y="368" text-anchor="middle" font-size="10" fill="#64748b">Nuxt 4 · Content Management</text>
  </g>

  <!-- Screen 3: API / Architecture diagram -->
  <g transform="translate(800, 470)" filter="url(#softShadow)">
    <rect width="440" height="230" rx="14" fill="#1e293b"/>
    <!-- Terminal header -->
    <rect width="440" height="32" rx="14 14 0 0" fill="#334155"/>
    <circle cx="18" cy="16" r="5" fill="#ef4444"/>
    <circle cx="34" cy="16" r="5" fill="#f59e0b"/>
    <circle cx="50" cy="16" r="5" fill="#10b981"/>
    <text x="220" y="20" text-anchor="middle" font-size="10" fill="#64748b">Backend API · Go + Fiber · Clean Architecture</text>

    <!-- Architecture boxes -->
    <g transform="translate(20, 50)">
      <!-- Handler -->
      <rect width="88" height="46" rx="6" fill="#0f172a" stroke="#3b82f6" stroke-width="1"/>
      <text x="44" y="20" text-anchor="middle" font-size="9" font-weight="700" fill="#3b82f6">Handler</text>
      <text x="44" y="34" text-anchor="middle" font-size="8" fill="#64748b">HTTP · REST</text>

      <!-- Arrow -->
      <line x1="88" y1="23" x2="118" y2="23" stroke="#64748b" stroke-width="1.5" marker-end="url(#arrow)"/>

      <!-- Usecase -->
      <rect x="118" width="88" height="46" rx="6" fill="#0f172a" stroke="#8b5cf6" stroke-width="1"/>
      <text x="162" y="20" text-anchor="middle" font-size="9" font-weight="700" fill="#8b5cf6">Usecase</text>
      <text x="162" y="34" text-anchor="middle" font-size="8" fill="#64748b">Business Logic</text>

      <!-- Arrow -->
      <line x1="206" y1="23" x2="236" y2="23" stroke="#64748b" stroke-width="1.5"/>
      <polygon points="234,19 242,23 234,27" fill="#64748b"/>

      <!-- Repository -->
      <rect x="236" width="88" height="46" rx="6" fill="#0f172a" stroke="#10b981" stroke-width="1"/>
      <text x="280" y="20" text-anchor="middle" font-size="9" font-weight="700" fill="#10b981">Repository</text>
      <text x="280" y="34" text-anchor="middle" font-size="8" fill="#64748b">GORM · DB</text>

      <!-- Arrow -->
      <line x1="324" y1="23" x2="354" y2="23" stroke="#64748b" stroke-width="1.5"/>
      <polygon points="352,19 360,23 352,27" fill="#64748b"/>

      <!-- PostgreSQL -->
      <rect x="354" width="64" height="46" rx="6" fill="#0f172a" stroke="#f59e0b" stroke-width="1"/>
      <text x="386" y="20" text-anchor="middle" font-size="9" font-weight="700" fill="#f59e0b">PG</text>
      <text x="386" y="34" text-anchor="middle" font-size="8" fill="#64748b">Postgres</text>
    </g>

    <!-- Middleware row -->
    <g transform="translate(20, 118)">
      <text x="0" y="12" font-size="8" font-weight="700" fill="#64748b">MIDDLEWARE</text>
      <g transform="translate(0, 18)">
        <rect width="70" height="22" rx="4" fill="#1e3a5f"/><text x="35" y="14" text-anchor="middle" font-size="8" fill="#93c5fd">JWT Auth</text>
        <g transform="translate(76,0)"><rect width="70" height="22" rx="4" fill="#1e3a5f"/><text x="35" y="14" text-anchor="middle" font-size="8" fill="#93c5fd">CORS</text></g>
        <g transform="translate(152,0)"><rect width="80" height="22" rx="4" fill="#1e3a5f"/><text x="40" y="14" text-anchor="middle" font-size="8" fill="#93c5fd">Rate Limit</text></g>
        <g transform="translate(238,0)"><rect width="80" height="22" rx="4" fill="#1e3a5f"/><text x="40" y="14" text-anchor="middle" font-size="8" fill="#93c5fd">Access Log</text></g>
        <g transform="translate(324,0)"><rect width="94" height="22" rx="4" fill="#1e3a5f"/><text x="47" y="14" text-anchor="middle" font-size="8" fill="#93c5fd">OpenTelemetry</text></g>
      </g>
    </g>

    <!-- Docker infra row -->
    <g transform="translate(20, 172)">
      <text x="0" y="12" font-size="8" font-weight="700" fill="#64748b">INFRASTRUCTURE</text>
      <g transform="translate(0, 18)">
        <rect width="64" height="22" rx="4" fill="#1c2434" stroke="#f59e0b" stroke-width="1"/><text x="32" y="14" text-anchor="middle" font-size="8" fill="#f59e0b">Docker</text>
        <g transform="translate(70,0)"><rect width="56" height="22" rx="4" fill="#1c2434" stroke="#f59e0b" stroke-width="1"/><text x="28" y="14" text-anchor="middle" font-size="8" fill="#f59e0b">Nginx</text></g>
        <g transform="translate(132,0)"><rect width="84" height="22" rx="4" fill="#1c2434" stroke="#06b6d4" stroke-width="1"/><text x="42" y="14" text-anchor="middle" font-size="8" fill="#06b6d4">Cloudflare R2</text></g>
        <g transform="translate(222,0)"><rect width="100" height="22" rx="4" fill="#1c2434" stroke="#06b6d4" stroke-width="1"/><text x="50" y="14" text-anchor="middle" font-size="8" fill="#06b6d4">CF Tunnel</text></g>
        <g transform="translate(328,0)"><rect width="90" height="22" rx="4" fill="#1c2434" stroke="#10b981" stroke-width="1"/><text x="45" y="14" text-anchor="middle" font-size="8" fill="#10b981">GitHub Actions</text></g>
      </g>
    </g>

    <!-- Label -->
    <text x="220" y="256" text-anchor="middle" font-size="12" font-weight="600" fill="#10b981">Backend API</text>
    <text x="220" y="272" text-anchor="middle" font-size="10" fill="#64748b">Go · Fiber · Clean Architecture</text>
  </g>

  <!-- ======================== FOOTER / BOTTOM TAGLINE ======================== -->
  <g transform="translate(0, 740)">
    <rect width="1400" height="60" fill="#0f172a"/>
    <line x1="0" y1="0" x2="1400" y2="0" stroke="#1e293b" stroke-width="1"/>

    <!-- Left: Personal brand -->
    <text x="60" y="35" font-size="14" font-weight="700" fill="#f8fafc">Waluyo Ade Prasetio</text>
    <text x="60" y="52" font-size="11" fill="#64748b">Squad Lead · Full Stack Developer · BRI</text>

    <!-- Center: tagline -->
    <text x="700" y="30" text-anchor="middle" font-size="13" font-weight="600" fill="#94a3b8">Built with passion — from architecture to deployment</text>
    <text x="700" y="50" text-anchor="middle" font-size="11" fill="#475569">Dibangun dengan semangat — dari arsitektur hingga deployment</text>

    <!-- Right: github -->
    <text x="1340" y="35" text-anchor="end" font-size="11" fill="#64748b">github.com/temancode</text>
    <text x="1340" y="52" text-anchor="end" font-size="11" fill="#64748b">temancode@gmail.com</text>
  </g>
</svg>
